<?xml version="1.0" standalone="no"?>
<!DOCTYPE svg PUBLIC "-//W3C//DTD SVG 20010904//EN"
 "http://www.w3.org/TR/2001/REC-SVG-20010904/DTD/svg10.dtd">
<svg version="1.0" xmlns="http://www.w3.org/2000/svg"
 width="250" height="70" viewBox="0 0 1171.000000 267.000000"
 preserveAspectRatio="xMidYMid meet">

<g transform="translate(0.000000,267.000000) scale(0.100000,-0.100000)"
fill="#837250" stroke="none">
<path d="M748 2153 c-82 -2 -148 -7 -148 -12 0 -5 22 -55 49 -112 75 -158 85
-205 86 -399 0 -181 -7 -212 -57 -239 -25 -14 -29 -14 -55 5 -25 19 -28 27
-26 75 8 202 6 287 -11 349 -34 125 -146 315 -193 326 -28 7 -180 0 -189 -8
-14 -15 -23 -311 -26 -908 l-3 -655 29 -14 c43 -20 158 -29 446 -33 l254 -3
-3 182 -3 183 26 10 c29 11 65 1 85 -24 13 -15 29 -185 31 -313 l0 -42 173 5
c237 7 412 21 436 34 48 25 63 216 63 785 1 437 -11 690 -35 763 -10 32 -17
38 -52 44 -22 4 -61 7 -86 7 l-47 1 -67 -100 c-44 -65 -78 -131 -98 -188 -31
-85 -31 -91 -32 -273 0 -199 -5 -219 -50 -219 -13 0 -34 13 -48 30 -34 40 -44
159 -29 335 12 149 31 213 97 325 25 42 45 80 45 83 0 7 -236 6 -562 0z"/>
<path d="M4477 1522 c-79 -11 -54 -27 47 -30 l93 -3 7 -145 c8 -151 12 -178
27 -168 5 3 9 75 9 160 l0 154 105 0 c97 0 135 11 83 23 -38 9 -320 15 -371 9z"/>
<path d="M5180 1524 c-14 -2 -39 -7 -57 -10 -42 -6 -93 -49 -93 -78 0 -23 28
-55 66 -74 11 -6 82 -22 156 -36 155 -28 181 -38 176 -69 -5 -34 -65 -49 -178
-45 -107 5 -152 22 -178 69 -19 32 -35 33 -40 2 -4 -26 68 -89 117 -103 63
-17 221 -12 267 9 49 22 73 66 54 101 -16 30 -55 44 -209 74 -204 41 -236 60
-160 98 26 14 59 18 137 18 120 0 156 -12 196 -64 31 -41 54 -37 37 6 -13 34
-64 75 -109 88 -45 12 -147 20 -182 14z"/>
<path d="M6370 1364 c0 -163 7 -213 26 -183 4 7 10 29 14 49 l5 35 130 6 c72
4 145 7 162 8 78 3 128 103 88 177 -29 53 -61 62 -253 70 l-172 7 0 -169z
m304 117 c44 -5 64 -13 77 -30 25 -30 24 -72 -2 -105 l-20 -26 -160 0 -159 0
0 85 0 85 103 -1 c56 0 129 -4 161 -8z"/>
<path d="M6984 1369 c8 -169 12 -201 27 -177 5 7 9 27 9 44 l0 31 153 5 c188
6 224 18 246 86 16 52 9 82 -28 124 -27 31 -31 32 -137 39 -60 4 -147 8 -193
8 l-84 1 7 -161z m378 82 c34 -38 36 -76 6 -108 -21 -22 -27 -23 -185 -23
l-163 0 0 86 0 87 157 -5 156 -5 29 -32z"/>
<path d="M8240 1520 c-87 -11 -134 -46 -128 -96 5 -44 42 -62 199 -93 154 -32
199 -46 199 -67 0 -41 -70 -59 -209 -52 -97 4 -131 19 -153 65 -15 31 -41 37
-46 12 -5 -28 46 -77 104 -98 40 -16 78 -21 142 -21 130 1 202 33 202 91 0 53
-52 78 -220 105 -116 18 -153 29 -174 53 -15 16 -15 19 5 37 16 15 40 19 119
22 141 6 167 -1 218 -56 32 -34 45 -43 51 -33 14 22 1 50 -36 80 -54 45 -164
65 -273 51z"/>
<path d="M8718 1525 c-5 -5 -8 -87 -8 -183 l0 -174 219 4 c121 1 223 6 227 11
18 17 -19 22 -202 25 l-194 4 0 59 0 59 199 0 c110 0 202 4 205 9 10 15 -31
20 -221 27 l-183 7 0 59 0 58 200 0 c179 0 230 6 186 23 -24 9 -421 20 -428
12z"/>
<path d="M9940 1352 c0 -99 4 -183 8 -186 5 -3 79 -1 165 3 124 7 163 12 189
27 47 27 78 94 78 166 0 50 -4 62 -31 93 -42 47 -100 63 -269 71 l-140 7 0
-181z m324 114 c103 -44 112 -175 16 -231 -29 -17 -57 -21 -167 -23 l-133 -4
0 142 0 143 127 -7 c69 -4 140 -13 157 -20z"/>
<path d="M10606 1522 c-44 -6 -51 -10 -58 -37 -5 -16 -6 -94 -2 -172 l6 -143
213 0 c202 0 243 5 220 28 -4 4 -96 9 -206 10 l-199 4 0 59 0 59 199 0 c188 0
229 6 206 28 -4 4 -96 9 -206 10 l-199 4 0 59 0 59 199 0 c181 0 249 8 188 23
-36 10 -308 16 -361 9z"/>
<path d="M11195 1522 l-30 -7 0 -167 c0 -153 5 -192 21 -175 4 3 9 27 12 52
l5 47 121 -4 122 -3 65 -42 c65 -42 105 -55 97 -30 -3 6 -24 25 -47 41 l-43
28 35 37 c19 20 40 46 46 58 29 56 -1 122 -68 150 -39 17 -284 27 -336 15z
m333 -53 c43 -16 52 -90 15 -131 -14 -16 -37 -18 -180 -18 l-163 0 0 85 0 85
153 -6 c83 -4 162 -11 175 -15z"/>
<path d="M2617 1478 c-13 -23 -45 -82 -71 -130 -26 -48 -50 -89 -55 -92 -4 -3
-35 53 -69 124 -41 85 -68 130 -78 130 -20 0 -16 -12 65 -194 36 -82 71 -148
76 -148 6 1 42 62 80 137 39 74 72 135 75 135 3 0 37 -62 75 -137 39 -75 74
-137 80 -137 10 -1 140 275 152 322 4 18 2 24 -8 21 -8 -3 -41 -59 -74 -126
-33 -67 -63 -125 -66 -128 -4 -3 -37 52 -74 122 -37 70 -70 132 -75 136 -4 5
-19 -11 -33 -35z"/>
<path d="M3884 1414 c-122 -146 -179 -227 -163 -233 7 -2 32 17 54 42 l41 47
172 0 171 0 28 -35 c33 -41 70 -68 77 -56 10 15 -260 341 -282 341 -5 0 -49
-48 -98 -106z m171 -26 l57 -63 -67 -3 c-36 -2 -93 -2 -127 0 l-62 3 58 63
c32 34 64 62 71 62 7 0 39 -28 70 -62z"/>
<path d="M5873 1478 c-63 -65 -223 -270 -223 -285 0 -23 16 -14 59 32 l41 45
168 0 168 0 49 -51 c55 -57 72 -50 29 13 -41 59 -234 288 -242 288 -5 0 -26
-19 -49 -42z m110 -87 c32 -33 57 -62 57 -65 0 -3 -54 -6 -120 -6 -66 0 -120
4 -120 9 0 15 101 121 114 121 7 0 38 -27 69 -59z"/>
<path d="M9336 1504 c-10 -25 -7 -308 4 -324 17 -27 30 37 30 151 0 60 4 109
9 109 5 0 91 -61 192 -135 101 -74 189 -133 194 -131 13 4 13 293 1 321 -8 19
-9 19 -16 -5 -5 -14 -8 -76 -9 -137 -1 -62 -5 -113 -10 -113 -5 0 -89 60 -188
133 -214 160 -200 150 -207 131z"/>
<path d="M3106 1479 c-8 -41 -6 -257 3 -289 11 -38 24 -8 30 70 l6 65 181 3
182 2 7 -80 c4 -44 11 -80 15 -80 15 0 20 46 20 193 0 117 -3 147 -14 147 -13
0 -26 -59 -26 -121 l0 -29 -185 0 -184 0 -3 72 c-3 75 -21 102 -32 47z"/>
<path d="M7617 1364 c-10 -3 -16 -11 -14 -17 2 -8 51 -13 157 -15 159 -3 210
3 157 19 -35 10 -275 20 -300 13z"/>
</g>
</svg>
