<svg xmlns="http://www.w3.org/2000/svg" width="78" height="42" fill="none"><path d="M49.63 6.595c-5.891-.832-11.7-2.14-17.598-2.974-8.63-1.22-17.496-2.437-24.908 4.072-3.645 3.2-7.818 10.328-5.005 15.26 1.892 3.32 5.266 5.52 8.307 7.369 7.375 4.484 15.592 7.167 23.937 8.736 12.474 2.345 27.492 2.414 37.578-7.853 2.103-2.14 4.353-5.128 4.384-8.422.054-5.672-5.78-9.957-9.665-12.426-5.34-3.395-11.38-5.33-17.434-6.665-6.93-1.53-14.147-2.556-21.271-2.03-3.205.237-6.432.735-9.51 1.842-1.803.65-2.61 1.345-3.846 2.778" stroke="#a10d3f" stroke-width="1.815" stroke-linecap="round"/></svg>